<?xml version="1.0" standalone="no"?>
<!DOCTYPE svg PUBLIC "-//W3C//DTD SVG 20010904//EN"
 "http://www.w3.org/TR/2001/REC-SVG-20010904/DTD/svg10.dtd">
<svg version="1.0" xmlns="http://www.w3.org/2000/svg"
 width="434.000000pt" height="181.000000pt" viewBox="0 0 434.000000 181.000000"
 preserveAspectRatio="xMidYMid meet">

<g transform="translate(0.000000,181.000000) scale(0.100000,-0.100000)"
fill="#000000" stroke="none">
<path d="M1491 1490 c-68 -14 -128 -48 -166 -93 -39 -46 -49 -84 -43 -163 4
-45 11 -61 39 -91 43 -45 87 -65 218 -98 132 -33 141 -38 141 -76 0 -25 -6
-33 -35 -45 -65 -27 -181 -12 -277 37 l-38 19 -30 -66 c-16 -37 -30 -72 -30
-79 0 -36 222 -91 328 -81 183 16 282 98 282 231 0 118 -59 168 -255 215 -49
13 -102 29 -117 36 -34 18 -37 53 -7 80 32 29 165 26 237 -6 29 -12 54 -21 56
-19 14 19 57 140 52 148 -23 37 -260 71 -355 51z"/>
<path d="M3541 1485 c-124 -35 -222 -119 -262 -225 -29 -75 -29 -194 0 -270
61 -161 252 -262 443 -232 189 29 315 161 326 343 10 172 -79 310 -240 371
-70 26 -197 32 -267 13z m218 -188 c85 -57 112 -187 58 -280 -102 -173 -357
-96 -357 109 0 161 169 257 299 171z"/>
<path d="M651 1480 c-4 -3 -38 -75 -76 -160 -37 -85 -105 -240 -151 -344 -46
-104 -84 -193 -84 -198 0 -5 45 -7 101 -6 l100 3 28 65 27 65 150 3 150 3 29
-70 28 -71 104 0 c56 0 103 2 103 4 0 5 -160 370 -263 601 l-44 100 -98 5
c-53 3 -100 3 -104 0z m145 -315 c23 -58 39 -105 36 -106 -14 -2 -167 3 -170
6 -1 1 16 50 39 109 23 58 44 104 47 101 2 -2 24 -52 48 -110z"/>
<path d="M2070 1128 l0 -358 100 0 100 0 0 358 0 357 -100 0 -100 0 0 -357z"/>
<path d="M2480 1400 l0 -80 170 0 c94 0 170 -3 170 -6 0 -3 -79 -98 -175 -212
l-175 -206 0 -63 0 -63 320 0 320 0 0 80 0 80 -185 2 -184 3 81 95 c44 52 125
148 179 213 l99 118 0 60 0 59 -310 0 -310 0 0 -80z"/>
<path d="M350 420 l0 -90 1135 0 1135 0 0 90 0 90 -1135 0 -1135 0 0 -90z"/>
<path d="M2760 430 c0 -47 4 -80 10 -80 6 0 10 33 10 80 0 47 -4 80 -10 80 -6
0 -10 -33 -10 -80z"/>
<path d="M2865 500 c-4 -6 7 -10 24 -10 l31 0 0 -70 c0 -40 4 -70 10 -70 6 0
10 30 10 70 0 68 1 70 25 70 14 0 25 5 25 10 0 6 -26 10 -59 10 -33 0 -63 -4
-66 -10z"/>
</g>
</svg>
